<svg id="Capa_1" enable-background="new 0 0 507.318 507.318" height="512" viewBox="0 0 507.318 507.318" width="512" xmlns="http://www.w3.org/2000/svg"><path d="m95.121 294.601c-100-37-57.585-124.883-57.585-124.883l35.625 24.432c2.26 18.77 10.54 40.28 33.22 56.21l32.268 19.74-5.322 32.996z" fill="#f76c57"/><path d="m412.198 294.601c100-37 57.585-124.883 57.585-124.883l-35.625 24.432c-2.26 18.77-10.54 40.28-33.22 56.21l-32.268 19.74 5.322 32.996z" fill="#f76c57"/><g fill="#e5554e"><path d="m131.149 336.093c4.143 0 7.5-3.357 7.5-7.5s-3.357-7.5-7.5-7.5h-72.658c-23.981 0-43.491-19.511-43.491-43.492 0-4.143-3.357-7.5-7.5-7.5s-7.5 3.357-7.5 7.5c0 32.253 26.239 58.492 58.491 58.492z"/><path d="m499.818 270.101c-4.143 0-7.5 3.357-7.5 7.5 0 23.981-19.51 43.492-43.491 43.492h-72.658c-4.143 0-7.5 3.357-7.5 7.5s3.357 7.5 7.5 7.5h72.658c32.252 0 58.491-26.239 58.491-58.492 0-4.143-3.357-7.5-7.5-7.5z"/><path d="m426.067 354.681h-72.657c-4.143 0-7.5 3.357-7.5 7.5s3.357 7.5 7.5 7.5h72.657c23.981 0 43.492 19.511 43.492 43.492 0 4.143 3.357 7.5 7.5 7.5s7.5-3.357 7.5-7.5c.001-32.253-26.239-58.492-58.492-58.492z"/><path d="m153.908 369.681c4.143 0 7.5-3.357 7.5-7.5s-3.357-7.5-7.5-7.5h-72.657c-32.253 0-58.492 26.239-58.492 58.492 0 4.143 3.357 7.5 7.5 7.5s7.5-3.357 7.5-7.5c0-23.981 19.511-43.492 43.492-43.492z"/><path d="m176.966 366.456-58.5 19.394c-23.111 7.335-38.64 28.554-38.64 52.802v12.949c0 4.143 3.357 7.5 7.5 7.5s7.5-3.357 7.5-7.5v-12.949c0-17.683 11.323-33.156 28.269-38.534l58.592-19.423c3.932-1.304 6.063-5.547 4.759-9.479-1.303-3.932-5.546-6.063-9.48-4.76z"/><path d="m388.828 385.842-61.925-19.423c-3.953-1.24-8.161.96-9.4 4.912s.959 8.161 4.912 9.4l61.9 19.415c16.854 5.349 28.177 20.822 28.177 38.505v12.949c0 4.143 3.357 7.5 7.5 7.5s7.5-3.357 7.5-7.5v-12.949c0-24.248-15.528-45.466-38.664-52.809z"/></g><path d="m166.739 92.208-3.75 8.35-5.43 14.38-9.89 26.22c-11.28 29.9-40.77 59.21-83.95 61.73v-19.23l14.44-64.5 16.01-1.42c12.7-3.75 24.08-11.14 33.36-18.93 8.12-6.83 14.62-13.96 19-19.22 2.35-2.84 5.77-4.34 9.24-4.34 2.12 0 4.25.56 6.18 1.72 5.23 3.13 7.28 9.68 4.79 15.24z" fill="#f87b67"/><path d="m93.999 85.938c-2.79 9.81-3.63 20.85.17 31.8 8.56 24.69-9.28 61.31-25.03 81.98-1.38 1.81-3.35 2.88-5.42 3.15-.35.05-.71.07-1.06.07-1.76 0-3.53-.58-5.02-1.77-32.49-26.04-29.35-86.06-3.22-118.48l11.03-13.23 13.41-16.1c4.45-5.33 12.23-6.81 18.07-3.04 6.06 3.91 7.94 11.82 4.45 18.09-2.8 5.04-5.52 11.01-7.37 17.53z" fill="#e5554e"/><path d="m101.379 68.408c-2.8 5.04-5.52 11.01-7.37 17.53h-.01l-28.55-16.48 13.41-16.1c4.45-5.33 12.23-6.81 18.07-3.04 6.06 3.91 7.94 11.82 4.45 18.09z" fill="#544f56"/><path d="m166.739 92.208-3.75 8.35-5.43 14.38-.85-.36-28.36-15.44-.82-.33c8.12-6.83 14.62-13.96 19-19.22 2.35-2.84 5.77-4.34 9.24-4.34 2.12 0 4.25.56 6.18 1.72 5.23 3.13 7.28 9.68 4.79 15.24z" fill="#544f56"/><path d="m340.58 92.208 3.75 8.35 5.43 14.38 9.89 26.22c11.28 29.9 40.77 59.21 83.95 61.73v-19.23l-14.44-64.5-16.01-1.42c-12.7-3.75-24.08-11.14-33.36-18.93-8.12-6.83-14.62-13.96-19-19.22-2.35-2.84-5.77-4.34-9.24-4.34-2.12 0-4.25.56-6.18 1.72-5.23 3.13-7.28 9.68-4.79 15.24z" fill="#f87b67"/><path d="m413.32 85.938c2.79 9.81 3.63 20.85-.17 31.8-8.56 24.69 9.28 61.31 25.03 81.98 1.38 1.81 3.35 2.88 5.42 3.15.35.05.71.07 1.06.07 1.76 0 3.53-.58 5.02-1.77 32.49-26.04 29.35-86.06 3.22-118.48l-11.03-13.23-13.41-16.1c-4.45-5.33-12.23-6.81-18.07-3.04-6.06 3.91-7.94 11.82-4.45 18.09 2.8 5.04 5.52 11.01 7.37 17.53z" fill="#e5554e"/><path d="m405.94 68.408c2.8 5.04 5.52 11.01 7.37 17.53h.01l28.55-16.48-13.41-16.1c-4.45-5.33-12.23-6.81-18.07-3.04-6.06 3.91-7.94 11.82-4.45 18.09z" fill="#544f56"/><path d="m340.58 92.208 3.75 8.35 5.43 14.38.85-.36 28.36-15.44.82-.33c-8.12-6.83-14.62-13.96-19-19.22-2.35-2.84-5.77-4.34-9.24-4.34-2.12 0-4.25.56-6.18 1.72-5.23 3.13-7.28 9.68-4.79 15.24z" fill="#544f56"/><path d="m189.159 223.767c-7.975 0-14.5-6.525-14.5-14.5v-34c0-7.975 6.525-14.5 14.5-14.5 7.975 0 14.5 6.525 14.5 14.5v34c0 7.975-6.525 14.5-14.5 14.5z" fill="#544f56"/><path d="m318.159 223.767c-7.975 0-14.5-6.525-14.5-14.5v-34c0-7.975 6.525-14.5 14.5-14.5 7.975 0 14.5 6.525 14.5 14.5v34c0 7.975-6.525 14.5-14.5 14.5z" fill="#544f56"/><path d="m317.583 387.677h-127.848c-51.192 0-93.076-41.884-93.076-93.076 0-51.192 41.884-93.076 93.076-93.076h127.848c51.192 0 93.076 41.884 93.076 93.076 0 51.192-41.884 93.076-93.076 93.076z" fill="#fa9084"/><path d="m393.769 347.898c-3.12 4.45-6.62 8.61-10.45 12.44-16.87 16.87-40.14 27.34-65.74 27.34h-127.84c-51.2 0-93.08-41.89-93.08-93.08 0-25.59 10.47-48.86 27.34-65.73 8.07-8.07 17.61-14.68 28.17-19.38-10.63 15.12-16.89 33.52-16.89 53.31 0 51.19 41.88 93.07 93.08 93.07h127.84c13.35 0 26.07-2.85 37.57-7.97z" fill="#f87b67"/></svg>